<svg width="17" height="25" viewBox="0 0 17 25" fill="none" xmlns="http://www.w3.org/2000/svg">
<g filter="url(#filter0_d)">
<path d="M12.8874 11.562C12.8874 12.138 12.7434 12.69 12.4554 13.218C12.1674 13.734 11.7414 14.166 11.1774 14.514C10.6254 14.862 9.95937 15.06 9.17937 15.108V16.566H8.20737V15.108C7.11537 15.012 6.22737 14.664 5.54337 14.064C4.85937 13.452 4.51137 12.678 4.49937 11.742H6.24537C6.29337 12.246 6.47937 12.684 6.80337 13.056C7.13937 13.428 7.60737 13.662 8.20737 13.758V9.258C7.40337 9.054 6.75537 8.844 6.26337 8.628C5.77137 8.412 5.35137 8.076 5.00337 7.62C4.65537 7.164 4.48137 6.552 4.48137 5.784C4.48137 4.812 4.81737 4.008 5.48937 3.372C6.17337 2.736 7.07937 2.382 8.20737 2.31V0.815999H9.17937V2.31C10.1994 2.394 11.0214 2.724 11.6454 3.3C12.2694 3.864 12.6294 4.602 12.7254 5.514H10.9794C10.9194 5.094 10.7334 4.716 10.4214 4.38C10.1094 4.032 9.69537 3.804 9.17937 3.696V8.088C9.97137 8.292 10.6134 8.502 11.1054 8.718C11.6094 8.922 12.0294 9.252 12.3654 9.708C12.7134 10.164 12.8874 10.782 12.8874 11.562ZM6.15537 5.694C6.15537 6.282 6.32937 6.732 6.67737 7.044C7.02537 7.356 7.53537 7.614 8.20737 7.818V3.66C7.58337 3.72 7.08537 3.924 6.71337 4.272C6.34137 4.608 6.15537 5.082 6.15537 5.694ZM9.17937 13.776C9.82737 13.704 10.3314 13.47 10.6914 13.074C11.0634 12.678 11.2494 12.204 11.2494 11.652C11.2494 11.064 11.0694 10.614 10.7094 10.302C10.3494 9.978 9.83937 9.72 9.17937 9.528V13.776Z" fill="#050C26"/>
</g>
<defs>
<filter id="filter0_d" x="0.481354" y="0.81604" width="16.406" height="23.75" filterUnits="userSpaceOnUse" color-interpolation-filters="sRGB">
<feFlood flood-opacity="0" result="BackgroundImageFix"/>
<feColorMatrix in="SourceAlpha" type="matrix" values="0 0 0 0 0 0 0 0 0 0 0 0 0 0 0 0 0 0 127 0"/>
<feOffset dy="4"/>
<feGaussianBlur stdDeviation="2"/>
<feColorMatrix type="matrix" values="0 0 0 0 0 0 0 0 0 0 0 0 0 0 0 0 0 0 0.25 0"/>
<feBlend mode="normal" in2="BackgroundImageFix" result="effect1_dropShadow"/>
<feBlend mode="normal" in="SourceGraphic" in2="effect1_dropShadow" result="shape"/>
</filter>
</defs>
</svg>
