<svg width="14" height="14" viewBox="0 0 14 14" fill="none" xmlns="http://www.w3.org/2000/svg">
<path d="M0.714355 4.57371C0.756012 4.27959 0.78775 3.98379 0.840698 3.69181C1.14084 2.038 2.31195 0.912787 3.98644 0.855123C6.00258 0.785865 8.02483 0.782204 10.0407 0.854818C11.8632 0.920415 13.1831 2.26958 13.24 4.09226C13.3005 6.02767 13.3005 7.96782 13.24 9.90323C13.1831 11.7259 11.8636 13.0749 10.0408 13.1407C8.02498 13.2134 6.00228 13.2153 3.9866 13.1396C2.16379 13.0711 0.903717 11.7189 0.781799 9.89347C0.771271 9.73558 0.737396 9.57906 0.714355 9.42193C0.714355 7.80581 0.714355 6.18968 0.714355 4.57371ZM7.00158 12.0605C7.92412 12.0605 8.84758 12.0881 9.7689 12.0541C11.2135 12.0005 12.102 11.1386 12.1357 9.69576C12.1775 7.89795 12.1775 6.09769 12.1357 4.29973C12.102 2.8572 11.2128 1.97515 9.7689 1.94449C7.93617 1.90574 6.10146 1.90605 4.26873 1.94449C2.83578 1.97454 1.94467 2.83874 1.90576 4.2654C1.85632 6.08595 1.85632 7.9097 1.90576 9.73024C1.94467 11.1567 2.83578 12.001 4.26888 12.0541C5.17861 12.0879 6.09063 12.0605 7.00158 12.0605Z" fill="white"/>
<path d="M7.00031 3.7959C5.2312 3.7959 3.79688 5.22975 3.79688 6.99846C3.79688 8.76732 5.2312 10.2012 7.00031 10.2012C8.76956 10.2012 10.2037 8.76732 10.2037 6.99846C10.2037 5.22975 8.76956 3.7959 7.00031 3.7959ZM7.00031 9.09851C5.84018 9.09851 4.89978 8.15832 4.89978 6.99846C4.89978 5.83859 5.84018 4.8984 7.00031 4.8984C8.16043 4.8984 9.10083 5.83859 9.10083 6.99846C9.10083 8.15832 8.16043 9.09851 7.00031 9.09851Z" fill="white"/>
<path d="M11.1526 3.64789C11.1526 4.06871 10.8114 4.40988 10.3906 4.40988C9.96976 4.40988 9.62842 4.06871 9.62842 3.64789C9.62842 3.22692 9.96976 2.88574 10.3906 2.88574C10.8114 2.88574 11.1526 3.22692 11.1526 3.64789Z" fill="white"/>
</svg>
