<svg width="1140" height="108" viewBox="0 0 1140 108" fill="none" xmlns="http://www.w3.org/2000/svg">
<path d="M725.577 -0.000648499C644.206 -0.000648499 579.867 26.6597 517.419 52.5636C455.513 78.2785 391.714 104.75 311.424 104.75C231.135 104.75 167.336 78.2785 105.429 52.5636C72.1783 38.7608 38.1161 24.5798 1.62096 14.5585L0.269287 17.2057C36.4941 27.2269 70.5563 41.2188 103.537 55.0217C165.714 80.9256 230.324 107.586 311.695 107.586C393.065 107.586 457.405 80.9256 519.852 55.0217C581.759 29.3068 645.558 2.83556 725.847 2.83556C806.137 2.83556 870.206 29.3068 931.842 55.0217C994.019 80.9256 1058.63 107.586 1140 107.586V104.75C1059.71 104.75 995.641 78.2785 934.005 52.5636C871.287 26.6597 806.948 -0.000648499 725.577 -0.000648499Z" fill="#7587C7" fill-opacity="0.02"/>
</svg>
